<?xml version="1.0" encoding="UTF-8"?>
<svg id="Layer_1" data-name="Layer 1" xmlns="http://www.w3.org/2000/svg" viewBox="0 0 90 14.43">
  <defs>
    <style>
      .cls-1 {
        fill: #5097ff;
      }
    </style>
  </defs>
  <path class="cls-1" d="m46.48.11c-6,1.01-12,7.03-19,2.01-1,0-4,2.01-6,2.01-1,0-2-3.01-3-3.01C12.48,2.12,9.48,9.15,2.48,10.16c0,0-1.04.2-2.19.23-.01-.07-.01-.15-.01-.23-.07-1.97.34-4.5.53-6.52,0,0,.66-.39,1.34-.56C16.48-.89,31.48.11,46.48.11Z"/>
  <path class="cls-1" d="m87.79,5.88c-5.3-1.45-12.3.55-15.3-5.45,5,2,10,2,15.28,2.94l.02,2.5Z"/>
  <path class="cls-1" d="m69.74,4.56c-4.85-.41-8.85-.41-13.85-.41,1,0,3-1,3-1-1-5-7,4-8-3,7,1,14-2,20,2-2,1-4,1-5.8.77l4.66,1.64Z"/>
</svg>