<svg xmlns="http://www.w3.org/2000/svg" xmlns:xlink="http://www.w3.org/1999/xlink" preserveAspectRatio="xMidYMid meet" width="1024" height="2060" viewBox="0 0 1024 2060" style="width:100%;height:100%"><defs><animateTransform repeatCount="indefinite" dur="0.7340674s" begin="0s" xlink:href="#_R_G_L_0_G" fill="freeze" attributeName="transform" from="0" to="0" type="rotate" additive="sum" keyTimes="0;0.7272727;0.9090909;1" values="0;-13;0;0" keySplines="0.167 0.167 0.833 0.833;0.167 0.167 0.833 0.833;0 0 0 0" calcMode="spline"/><animateTransform repeatCount="indefinite" dur="0.7340674s" begin="0s" xlink:href="#_R_G_L_0_G" fill="freeze" attributeName="transform" from="222 -200" to="222 -200" type="translate" additive="sum" keyTimes="0;1" values="222 -200;222 -200" keySplines="0 0 1 1" calcMode="spline"/><animate attributeType="XML" attributeName="opacity" dur="1s" from="0" to="1" xlink:href="#time_group"/></defs><g id="_R_G"><g id="_R_G_L_1_G" transform=" translate(525, 1542) scale(1, 1.3098599999999998) translate(0, 0)"><path id="_R_G_L_1_G_D_0_P_0" fill="#606060" fill-opacity="1" fill-rule="nonzero" d=" M412 -244 C412,-244 412,284 412,284 C412,284 -438,284 -438,284 C-438,284 -438,-244 -438,-244 C-438,-244 412,-244 412,-244z "/><path id="_R_G_L_1_G_D_1_P_0" stroke="#ffffff" stroke-linecap="round" stroke-linejoin="round" fill="none" stroke-width="0" stroke-opacity="1" d=" M412 -244 C412,-244 412,284 412,284 C412,284 -438,284 -438,284 C-438,284 -438,-244 -438,-244 C-438,-244 412,-244 412,-244z "/></g><g id="_R_G_L_0_G" transform=" translate(268, 1143)"><path id="_R_G_L_0_G_D_0_P_0" fill="#28ffd4" fill-opacity="1" fill-rule="nonzero" d=" M-252 -290 C-252,-290 -252,350 -252,350 C-252,350 -352,350 -352,350 C-352,350 -352,-290 -352,-290 C-352,-290 -252,-290 -252,-290z "/><path id="_R_G_L_0_G_D_1_P_0" stroke="#ffffff" stroke-linecap="round" stroke-linejoin="round" fill="none" stroke-width="0" stroke-opacity="1" d=" M-252 -290 C-252,-290 -252,350 -252,350 C-252,350 -352,350 -352,350 C-352,350 -352,-290 -352,-290 C-352,-290 -252,-290 -252,-290z "/><path id="_R_G_L_0_G_D_2_P_0" fill="#28ffd4" fill-opacity="1" fill-rule="nonzero" d=" M292 -322 C292,-322 292,-194 292,-194 C292,-194 -352,-194 -352,-194 C-352,-194 -352,-322 -352,-322 C-352,-322 292,-322 292,-322z "/><path id="_R_G_L_0_G_D_3_P_0" stroke="#ffffff" stroke-linecap="round" stroke-linejoin="round" fill="none" stroke-width="0" stroke-opacity="1" d=" M292 -322 C292,-322 292,-194 292,-194 C292,-194 -352,-194 -352,-194 C-352,-194 -352,-322 -352,-322 C-352,-322 292,-322 292,-322z "/><path id="_R_G_L_0_G_D_4_P_0" fill="#28ffd4" fill-opacity="1" fill-rule="nonzero" d=" M328 -326 C328,-326 328,302 328,302 C328,302 216,302 216,302 C216,302 216,-326 216,-326 C216,-326 328,-326 328,-326z "/><path id="_R_G_L_0_G_D_5_P_0" stroke="#ffffff" stroke-linecap="round" stroke-linejoin="round" fill="none" stroke-width="0" stroke-opacity="1" d=" M328 -326 C328,-326 328,302 328,302 C328,302 216,302 216,302 C216,302 216,-326 216,-326 C216,-326 328,-326 328,-326z "/></g></g><g id="time_group"/></svg>